<svg xmlns="http://www.w3.org/2000/svg" width="24" height="24" viewBox="0 0 24 24" fill="none">
  <path fill="#F4E8CF" d="M3.4 4.9c.42-.38 1.05-.06 1.06.5.02 1.45.63 2.63 1.66 3.42.92.7 2.2 1.08 3.7 1.08h4.36c1.5 0 2.78-.38 3.7-1.08 1.03-.79 1.64-1.97 1.66-3.42.01-.56.64-.88 1.06-.5 1.15 1.04 1.68 2.54 1.35 3.97-.46 2.02-2.39 3.33-5.04 3.33h-2.68c-.46 0-.82.36-.82.82v5.1c0 1.14.32 1.74.95 1.74.38 0 .7-.17.96-.5.3-.38.88-.3 1.05.15.16.43.07.9-.25 1.32-.59.78-1.58 1.26-2.69 1.26-2.26 0-3.66-1.52-3.66-3.97v-5.1c0-.46-.36-.82-.82-.82H7.1c-2.65 0-4.58-1.31-5.04-3.33-.33-1.43.2-2.93 1.35-3.97Z"/>
</svg>
